<svg width="230" height="50" viewBox="0 0 230 50" fill="none" xmlns="http://www.w3.org/2000/svg">
<rect width="50" height="50" rx="25" fill="#EC4899"/>
<path d="M25 23.05L21.1 19.15V12H28.9V19.15L25 23.05ZM30.85 28.9L26.95 25L30.85 21.1H38V28.9H30.85ZM12 28.9V21.1H19.15L23.05 25L19.15 28.9H12ZM21.1 38V30.85L25 26.95L28.9 30.85V38H21.1Z" fill="white"/>
<path d="M78.8864 22.1591H73.2045C73.1288 21.5758 72.9735 21.0492 72.7386 20.5795C72.5038 20.1098 72.1932 19.7083 71.8068 19.375C71.4205 19.0417 70.9621 18.7879 70.4318 18.6136C69.9091 18.4318 69.3295 18.3409 68.6932 18.3409C67.5644 18.3409 66.5909 18.6174 65.7727 19.1705C64.9621 19.7235 64.3371 20.5227 63.8977 21.5682C63.4659 22.6136 63.25 23.8788 63.25 25.3636C63.25 26.9091 63.4697 28.2045 63.9091 29.25C64.3561 30.2879 64.9811 31.072 65.7841 31.6023C66.5947 32.125 67.553 32.3864 68.6591 32.3864C69.2803 32.3864 69.8447 32.3068 70.3523 32.1477C70.8674 31.9886 71.3182 31.7576 71.7045 31.4545C72.0985 31.1439 72.4205 30.7689 72.6705 30.3295C72.928 29.8826 73.1061 29.3788 73.2045 28.8182L78.8864 28.8523C78.7879 29.8826 78.4886 30.8977 77.9886 31.8977C77.4962 32.8977 76.8182 33.8106 75.9545 34.6364C75.0909 35.4545 74.0379 36.1061 72.7955 36.5909C71.5606 37.0758 70.1439 37.3182 68.5455 37.3182C66.4394 37.3182 64.553 36.8561 62.8864 35.9318C61.2273 35 59.9167 33.6439 58.9545 31.8636C57.9924 30.0833 57.5114 27.9167 57.5114 25.3636C57.5114 22.803 58 20.6326 58.9773 18.8523C59.9545 17.072 61.2765 15.7197 62.9432 14.7955C64.6098 13.8712 66.4773 13.4091 68.5455 13.4091C69.9545 13.4091 71.2576 13.6061 72.4545 14C73.6515 14.3864 74.7045 14.9545 75.6136 15.7045C76.5227 16.447 77.2614 17.3598 77.8295 18.4432C78.3977 19.5265 78.75 20.7652 78.8864 22.1591ZM82.1051 37V19.5455H87.5028V22.7273H87.6847C88.0028 21.5758 88.5218 20.7197 89.2415 20.1591C89.9612 19.5909 90.7983 19.3068 91.7528 19.3068C92.0104 19.3068 92.2756 19.3258 92.5483 19.3636C92.821 19.3939 93.0748 19.4432 93.3097 19.5114V24.3409C93.0445 24.25 92.696 24.178 92.2642 24.125C91.84 24.072 91.4612 24.0455 91.1278 24.0455C90.4688 24.0455 89.8741 24.1932 89.3438 24.4886C88.821 24.7765 88.4081 25.1818 88.1051 25.7045C87.8097 26.2197 87.6619 26.8258 87.6619 27.5227V37H82.1051ZM99.5028 43.5455C98.8362 43.5455 98.2074 43.4924 97.6165 43.3864C97.0256 43.2879 96.518 43.1553 96.0938 42.9886L97.321 38.9545C97.8665 39.1364 98.3589 39.2424 98.7983 39.2727C99.2453 39.303 99.6278 39.2311 99.946 39.0568C100.272 38.8902 100.522 38.5909 100.696 38.1591L100.912 37.6364L94.7074 19.5455H100.526L103.741 32H103.923L107.185 19.5455H113.037L106.457 38.6705C106.139 39.625 105.688 40.4659 105.105 41.1932C104.529 41.928 103.783 42.5038 102.866 42.9205C101.957 43.3371 100.836 43.5455 99.5028 43.5455ZM115.168 43.5455V19.5455H120.668V22.5341H120.838C121.065 22.0038 121.387 21.4924 121.804 21C122.228 20.5076 122.766 20.1061 123.418 19.7955C124.077 19.4773 124.865 19.3182 125.781 19.3182C126.993 19.3182 128.126 19.6364 129.179 20.2727C130.24 20.9091 131.096 21.8902 131.747 23.2159C132.399 24.5417 132.724 26.2311 132.724 28.2841C132.724 30.2614 132.41 31.9167 131.781 33.25C131.16 34.5833 130.319 35.5833 129.259 36.25C128.205 36.9167 127.035 37.25 125.747 37.25C124.868 37.25 124.107 37.1061 123.463 36.8182C122.819 36.5303 122.277 36.1515 121.838 35.6818C121.406 35.2121 121.073 34.7083 120.838 34.1705H120.724V43.5455H115.168ZM120.611 28.2727C120.611 29.2121 120.736 30.0303 120.986 30.7273C121.243 31.4242 121.611 31.9659 122.088 32.3523C122.573 32.7311 123.152 32.9205 123.827 32.9205C124.509 32.9205 125.088 32.7311 125.565 32.3523C126.043 31.9659 126.402 31.4242 126.645 30.7273C126.895 30.0303 127.02 29.2121 127.02 28.2727C127.02 27.3333 126.895 26.5189 126.645 25.8295C126.402 25.1402 126.043 24.6061 125.565 24.2273C125.096 23.8485 124.516 23.6591 123.827 23.6591C123.145 23.6591 122.565 23.8447 122.088 24.2159C121.611 24.5871 121.243 25.1174 120.986 25.8068C120.736 26.4962 120.611 27.3182 120.611 28.2727ZM145.489 19.5455V23.6364H134.477V19.5455H145.489ZM136.784 15.3636H142.341V31.5114C142.341 31.8523 142.394 32.1288 142.5 32.3409C142.614 32.5455 142.777 32.6932 142.989 32.7841C143.201 32.8674 143.455 32.9091 143.75 32.9091C143.962 32.9091 144.186 32.8902 144.42 32.8523C144.663 32.8068 144.845 32.7689 144.966 32.7386L145.807 36.75C145.542 36.8258 145.167 36.9205 144.682 37.0341C144.205 37.1477 143.633 37.2197 142.966 37.25C141.663 37.3106 140.545 37.1591 139.614 36.7955C138.689 36.4242 137.981 35.8485 137.489 35.0682C137.004 34.2879 136.769 33.3068 136.784 32.125V15.3636ZM153.244 37.2955C152.131 37.2955 151.142 37.1098 150.278 36.7386C149.422 36.3598 148.744 35.7917 148.244 35.0341C147.752 34.2689 147.506 33.3106 147.506 32.1591C147.506 31.1894 147.676 30.3712 148.017 29.7045C148.358 29.0379 148.828 28.4962 149.426 28.0795C150.025 27.6629 150.714 27.3485 151.494 27.1364C152.275 26.9167 153.108 26.7689 153.994 26.6932C154.987 26.6023 155.786 26.5076 156.392 26.4091C156.998 26.303 157.438 26.1553 157.71 25.9659C157.991 25.7689 158.131 25.4924 158.131 25.1364V25.0795C158.131 24.4962 157.93 24.0455 157.528 23.7273C157.127 23.4091 156.585 23.25 155.903 23.25C155.169 23.25 154.578 23.4091 154.131 23.7273C153.684 24.0455 153.4 24.4848 153.278 25.0455L148.153 24.8636C148.305 23.803 148.695 22.8561 149.324 22.0227C149.96 21.1818 150.831 20.5227 151.938 20.0455C153.051 19.5606 154.388 19.3182 155.949 19.3182C157.063 19.3182 158.089 19.4508 159.028 19.7159C159.968 19.9735 160.786 20.3523 161.483 20.8523C162.18 21.3447 162.718 21.9508 163.097 22.6705C163.483 23.3902 163.676 24.2121 163.676 25.1364V37H158.449V34.5682H158.312C158.002 35.1591 157.604 35.6591 157.119 36.0682C156.642 36.4773 156.078 36.7841 155.426 36.9886C154.782 37.1932 154.055 37.2955 153.244 37.2955ZM154.96 33.6591C155.559 33.6591 156.097 33.5379 156.574 33.2955C157.059 33.053 157.445 32.7197 157.733 32.2955C158.021 31.8636 158.165 31.3636 158.165 30.7955V29.1364C158.006 29.2197 157.813 29.2955 157.585 29.3636C157.366 29.4318 157.123 29.4962 156.858 29.5568C156.593 29.6174 156.32 29.6705 156.04 29.7159C155.759 29.7614 155.491 29.803 155.233 29.8409C154.71 29.9242 154.263 30.053 153.892 30.2273C153.528 30.4015 153.248 30.6288 153.051 30.9091C152.862 31.1818 152.767 31.5076 152.767 31.8864C152.767 32.4621 152.972 32.9015 153.381 33.2045C153.797 33.5076 154.324 33.6591 154.96 33.6591ZM189.04 25.3636C189.04 27.9242 188.547 30.0947 187.562 31.875C186.578 33.6553 185.244 35.0076 183.562 35.9318C181.888 36.8561 180.009 37.3182 177.926 37.3182C175.835 37.3182 173.953 36.8523 172.278 35.9205C170.604 34.9886 169.275 33.6364 168.29 31.8636C167.312 30.0833 166.824 27.9167 166.824 25.3636C166.824 22.803 167.312 20.6326 168.29 18.8523C169.275 17.072 170.604 15.7197 172.278 14.7955C173.953 13.8712 175.835 13.4091 177.926 13.4091C180.009 13.4091 181.888 13.8712 183.562 14.7955C185.244 15.7197 186.578 17.072 187.562 18.8523C188.547 20.6326 189.04 22.803 189.04 25.3636ZM183.29 25.3636C183.29 23.8485 183.074 22.5682 182.642 21.5227C182.218 20.4773 181.604 19.6856 180.801 19.1477C180.006 18.6098 179.047 18.3409 177.926 18.3409C176.813 18.3409 175.854 18.6098 175.051 19.1477C174.248 19.6856 173.631 20.4773 173.199 21.5227C172.775 22.5682 172.562 23.8485 172.562 25.3636C172.562 26.8788 172.775 28.1591 173.199 29.2045C173.631 30.25 174.248 31.0417 175.051 31.5795C175.854 32.1174 176.813 32.3864 177.926 32.3864C179.047 32.3864 180.006 32.1174 180.801 31.5795C181.604 31.0417 182.218 30.25 182.642 29.2045C183.074 28.1591 183.29 26.8788 183.29 25.3636ZM192.324 43.5455V19.5455H197.824V22.5341H197.994C198.222 22.0038 198.544 21.4924 198.96 21C199.384 20.5076 199.922 20.1061 200.574 19.7955C201.233 19.4773 202.021 19.3182 202.938 19.3182C204.15 19.3182 205.282 19.6364 206.335 20.2727C207.396 20.9091 208.252 21.8902 208.903 23.2159C209.555 24.5417 209.881 26.2311 209.881 28.2841C209.881 30.2614 209.566 31.9167 208.938 33.25C208.316 34.5833 207.475 35.5833 206.415 36.25C205.362 36.9167 204.191 37.25 202.903 37.25C202.025 37.25 201.263 37.1061 200.619 36.8182C199.975 36.5303 199.434 36.1515 198.994 35.6818C198.562 35.2121 198.229 34.7083 197.994 34.1705H197.881V43.5455H192.324ZM197.767 28.2727C197.767 29.2121 197.892 30.0303 198.142 30.7273C198.4 31.4242 198.767 31.9659 199.244 32.3523C199.729 32.7311 200.309 32.9205 200.983 32.9205C201.665 32.9205 202.244 32.7311 202.722 32.3523C203.199 31.9659 203.559 31.4242 203.801 30.7273C204.051 30.0303 204.176 29.2121 204.176 28.2727C204.176 27.3333 204.051 26.5189 203.801 25.8295C203.559 25.1402 203.199 24.6061 202.722 24.2273C202.252 23.8485 201.672 23.6591 200.983 23.6591C200.301 23.6591 199.722 23.8447 199.244 24.2159C198.767 24.5871 198.4 25.1174 198.142 25.8068C197.892 26.4962 197.767 27.3182 197.767 28.2727ZM228.031 24.875L222.929 25.0114C222.876 24.6477 222.732 24.3258 222.497 24.0455C222.262 23.7576 221.955 23.5341 221.577 23.375C221.205 23.2083 220.774 23.125 220.281 23.125C219.637 23.125 219.088 23.2538 218.634 23.5114C218.187 23.7689 217.967 24.1174 217.974 24.5568C217.967 24.8977 218.103 25.1932 218.384 25.4432C218.671 25.6932 219.183 25.8939 219.918 26.0455L223.281 26.6818C225.024 27.0152 226.319 27.5682 227.168 28.3409C228.024 29.1136 228.455 30.1364 228.463 31.4091C228.455 32.6061 228.099 33.6477 227.395 34.5341C226.698 35.4205 225.743 36.1098 224.531 36.6023C223.319 37.0871 221.933 37.3295 220.372 37.3295C217.88 37.3295 215.914 36.8182 214.474 35.7955C213.043 34.7652 212.224 33.3864 212.02 31.6591L217.509 31.5227C217.63 32.1591 217.944 32.6439 218.452 32.9773C218.959 33.3106 219.607 33.4773 220.395 33.4773C221.107 33.4773 221.687 33.3447 222.134 33.0795C222.58 32.8144 222.808 32.4621 222.815 32.0227C222.808 31.6288 222.634 31.3144 222.293 31.0795C221.952 30.8371 221.418 30.6477 220.69 30.5114L217.645 29.9318C215.895 29.6136 214.592 29.0265 213.736 28.1705C212.88 27.3068 212.455 26.2083 212.463 24.875C212.455 23.7083 212.766 22.7121 213.395 21.8864C214.024 21.053 214.918 20.4167 216.077 19.9773C217.236 19.5379 218.603 19.3182 220.179 19.3182C222.543 19.3182 224.406 19.8144 225.77 20.8068C227.134 21.7917 227.887 23.1477 228.031 24.875Z" fill="black"/>
</svg>
